<?xml version="1.0" encoding="UTF-8" standalone="no"?>
<!-- Created with Inkscape (http://www.inkscape.org/) -->

<svg
   width="4100"
   height="475"
   viewBox="0 0 1084.7916 125.67707"
   version="1.1"
   id="svg1"
   inkscape:version="1.3 (0e150ed6c4, 2023-07-21)"
   sodipodi:docname="wijayamotor_title_long_simple.svg"
   xmlns:inkscape="http://www.inkscape.org/namespaces/inkscape"
   xmlns:sodipodi="http://sodipodi.sourceforge.net/DTD/sodipodi-0.dtd"
   xmlns="http://www.w3.org/2000/svg"
   xmlns:svg="http://www.w3.org/2000/svg">
  <sodipodi:namedview
     id="namedview1"
     pagecolor="#ffffff"
     bordercolor="#000000"
     borderopacity="0.25"
     inkscape:showpageshadow="2"
     inkscape:pageopacity="0.0"
     inkscape:pagecheckerboard="0"
     inkscape:deskcolor="#d1d1d1"
     inkscape:document-units="px"
     inkscape:zoom="0.1781706"
     inkscape:cx="2570.57"
     inkscape:cy="140.31496"
     inkscape:window-width="1920"
     inkscape:window-height="1009"
     inkscape:window-x="-8"
     inkscape:window-y="-8"
     inkscape:window-maximized="1"
     inkscape:current-layer="layer1"
     showguides="false" />
  <defs
     id="defs1" />
  <g
     inkscape:label="Layer 1"
     inkscape:groupmode="layer"
     id="layer1">
    <path
       id="rect1"
       style="fill:#000000;stroke-width:0.190584"
       d="m 13.229165,13.229163 10e-7,13.229168 V 52.916664 79.375 c 2e-6,18.26567 14.807251,33.07291 33.072916,33.07291 18.265665,0 33.072913,-14.80725 33.072915,-33.07291 V 46.302081 c -10e-7,-3.653134 2.96145,-6.614585 6.614584,-6.614584 3.653134,0 6.614584,2.96145 6.614583,6.614584 V 79.375 c 2e-6,18.26567 14.807246,33.07291 33.072916,33.07291 18.26566,0 33.07291,-14.80725 33.07291,-33.07291 V 52.916664 26.458331 13.229163 H 132.29166 V 26.458331 52.916664 79.375 c 0,3.65313 -2.96145,6.61458 -6.61458,6.61458 -3.65313,0 -6.61458,-2.96145 -6.61458,-6.61458 V 46.302081 c 0,-18.265669 -14.80725,-33.072919 -33.072919,-33.072916 -18.265668,-10e-7 -33.072917,14.807248 -33.072916,33.072916 V 79.375 c -2e-6,3.65313 -2.961451,6.61458 -6.614583,6.61458 -3.653132,0 -6.614581,-2.96145 -6.614583,-6.61458 V 52.916664 26.458331 l -1e-6,-13.229168 z"
       sodipodi:nodetypes="cccsssssssssccccccssssssssscccc" />
    <path
       id="rect22"
       style="fill:#000000;stroke-width:0.369064"
       d="m 171.97916,13.229159 v 26.458332 h 19.84375 v 46.302083 h -19.84375 v 26.458336 h 19.84375 26.45834 19.84375 V 85.989574 H 218.28125 V 39.687491 H 238.125 V 13.229159 Z" />
    <g
       id="g45"
       transform="translate(52.916668,-26.458338)">
      <path
         id="path37"
         style="fill:#000000;stroke-width:0.358426"
         d="m 238.12499,39.687499 v 66.145841 a 6.614583,6.614583 0 0 1 -6.61458,6.61458 6.614583,6.614583 0 0 1 -6.61459,-6.61458 V 92.604169 h -26.45833 v 13.229171 a 33.072914,33.072914 0 0 0 33.07292,33.07291 33.072914,33.072914 0 0 0 33.07291,-33.07291 V 39.687499 Z" />
      <g
         id="g39"
         transform="translate(-128.94959,-1.5750802)">
        <path
           id="rect25"
           style="fill:#000000;stroke-width:0.301339"
           d="m 439.83499,41.262579 a 33.072914,33.072914 0 0 0 -33.07291,33.072915 v 66.145836 h 26.45833 v -33.07292 h 13.22917 v 33.07292 h 26.45833 V 74.335494 A 33.072914,33.072914 0 0 0 439.83499,41.262579 Z m 0,26.458332 a 6.614583,6.614583 0 0 1 6.61459,6.614583 v 6.614583 h -13.22917 v -6.614583 a 6.614583,6.614583 0 0 1 6.61458,-6.614583 z" />
        <path
           id="rect28"
           style="fill:#000000;stroke-width:0.252119"
           d="m 486.13708,41.262579 v 26.458332 a 33.072914,33.072914 0 0 0 19.84375,30.273087 v 42.487332 h 26.45833 V 98.024487 A 33.072914,33.072914 0 0 0 552.28291,67.720911 V 41.262579 h -26.45834 v 26.458332 a 6.614583,6.614583 0 0 1 -6.61458,6.614583 6.614583,6.614583 0 0 1 -6.61458,-6.614583 V 41.262579 Z" />
        <path
           id="path39"
           style="fill:#000000;stroke-width:0.301339"
           d="m 598.58498,41.262579 a 33.072914,33.072914 0 0 0 -33.07291,33.072915 v 66.145836 h 26.45833 v -33.07292 h 13.22917 v 33.07292 H 631.6579 V 74.335494 A 33.072914,33.072914 0 0 0 598.58498,41.262579 Z m 0,26.458332 a 6.614583,6.614583 0 0 1 6.61459,6.614583 v 6.614583 H 591.9704 v -6.614583 a 6.614583,6.614583 0 0 1 6.61458,-6.614583 z" />
      </g>
    </g>
    <g
       id="g64"
       transform="translate(-66.145833)">
      <path
         id="path46"
         style="fill:#000000;stroke-width:0.190584"
         d="m 707.76039,13.229166 c -18.26563,-3e-6 -33.07291,14.807281 -33.07291,33.072916 v 26.458332 39.687496 h 26.45833 V 72.760414 46.302082 c 0,-3.653128 2.96146,-6.614586 6.61458,-6.614583 3.65312,2e-6 6.61459,2.961459 6.61459,6.614583 v 33.072915 c 0,18.265632 14.80728,33.072913 33.07291,33.072913 18.26562,0 33.07292,-14.807285 33.07292,-33.072913 V 46.302082 c 0,-3.653128 2.96146,-6.614586 6.61458,-6.614583 3.65312,2e-6 6.61458,2.961459 6.61458,6.614583 v 26.458332 39.687496 h 26.45834 V 72.760414 46.302082 c 0,-18.265631 -14.80729,-33.072914 -33.07292,-33.072916 -18.26564,-3e-6 -33.07291,14.807281 -33.07291,33.072916 v 33.072915 c 0,3.653126 -2.96147,6.614582 -6.61459,6.614584 -3.65312,-2e-6 -6.61458,-2.961458 -6.61458,-6.614584 V 46.302082 c 0,-18.265635 -14.80728,-33.072919 -33.07292,-33.072916 z"
         sodipodi:nodetypes="ssccccsssssssssccccssssssss" />
      <path
         id="path47"
         style="fill:#000000;stroke-width:0.358426"
         d="m 866.51039,13.229166 a 33.072914,33.072914 0 0 0 -33.07291,33.072916 v 33.072915 a 33.072914,33.072904 0 0 0 33.07291,33.072913 33.072914,33.072904 0 0 0 33.07292,-33.072913 V 46.302082 A 33.072914,33.072914 0 0 0 866.51039,13.229166 Z m 0,26.458332 a 6.614583,6.614583 0 0 1 6.61459,6.614584 v 33.072915 a 6.614583,6.6145809 0 0 1 -6.61459,6.614583 6.614583,6.6145809 0 0 1 -6.61458,-6.614583 V 46.302082 a 6.614583,6.614583 0 0 1 6.61458,-6.614584 z" />
      <path
         id="rect52"
         style="fill:#000000;stroke-width:0.260173"
         d="m 912.81247,13.229166 v 26.458332 h 19.84375 v 72.760412 h 26.45834 V 39.687498 h 19.84375 V 13.229166 Z" />
      <path
         id="path53"
         style="fill:#000000;stroke-width:0.358426"
         d="m 1025.2604,13.229166 a 33.072914,33.072914 0 0 0 -33.07293,33.072916 v 33.072915 a 33.072914,33.072904 0 0 0 33.07293,33.072913 33.072914,33.072904 0 0 0 33.0729,-33.072913 V 46.302082 a 33.072914,33.072914 0 0 0 -33.0729,-33.072916 z m 0,26.458332 a 6.614583,6.614583 0 0 1 6.6146,6.614584 v 33.072915 a 6.614583,6.6145809 0 0 1 -6.6146,6.614583 6.614583,6.6145809 0 0 1 -6.6146,-6.614583 V 46.302082 a 6.614583,6.614583 0 0 1 6.6146,-6.614584 z" />
      <path
         d="m 1071.5625,13.229166 v 72.76041 6.61458 19.843744 h 26.4583 v -19.843744 -6.61458 -6.61458 h 6.6146 a 6.614583,6.614583 0 0 1 2.0443,0.32401 6.614583,6.614583 0 0 1 1.8438,0.93947 6.614583,6.614583 0 0 1 1.463,1.46296 6.614583,6.614583 0 0 1 0.94,1.84434 6.614583,6.614583 0 0 1 0.3235,2.0438 v 6.61458 19.843744 h 26.4583 v -19.843744 -6.61458 a 33.072914,33.072914 0 0 0 -0.4304,-5.29735 33.072914,33.072914 0 0 0 -1.2733,-5.15989 33.072914,33.072914 0 0 0 -2.0836,-4.88963 33.072914,33.072914 0 0 0 -2.8402,-4.49223 33.072914,33.072914 0 0 0 2.8412,-4.4943 33.072914,33.072914 0 0 0 2.0836,-4.89169 33.072914,33.072914 0 0 0 1.2733,-5.16247 33.072914,33.072914 0 0 0 0.4294,-5.29994 33.072914,33.072914 0 0 0 -0.4072,-5.17384 33.072914,33.072914 0 0 0 -1.2113,-5.04621 33.072914,33.072914 0 0 0 -1.9859,-4.79454 33.072914,33.072914 0 0 0 -2.712,-4.42505 33.072914,33.072914 0 0 0 -3.3703,-3.94653 33.072914,33.072914 0 0 0 -3.9465,-3.37033 33.072914,33.072914 0 0 0 -4.4246,-2.71147 33.072914,33.072914 0 0 0 -4.795,-1.98644 33.072914,33.072914 0 0 0 -5.0462,-1.21129 33.072914,33.072914 0 0 0 -5.1739,-0.40721 h -6.6146 z m 26.4583,26.45833 h 6.6146 a 6.614583,6.614583 0 0 1 2.0443,0.32401 6.614583,6.614583 0 0 1 1.8438,0.93948 6.614583,6.614583 0 0 1 1.463,1.46296 6.614583,6.614583 0 0 1 0.94,1.84433 6.614583,6.614583 0 0 1 0.3235,2.0438 6.614583,6.614583 0 0 1 -0.3235,2.0438 6.614583,6.614583 0 0 1 -0.94,1.84434 6.614583,6.614583 0 0 1 -1.463,1.46296 6.614583,6.614583 0 0 1 -1.8438,0.93947 6.614583,6.614583 0 0 1 -2.0443,0.32401 h -6.6146 z"
         style="stroke-width:0.358426"
         id="path61" />
    </g>
  </g>
</svg>
