<?xml version="1.0" encoding="UTF-8" standalone="no"?>
<!-- Created with Inkscape (http://www.inkscape.org/) -->

<svg
   width="1000"
   height="375"
   viewBox="0 0 1000 375"
   version="1.1"
   id="svg1"
   xml:space="preserve"
   inkscape:version="1.3 (0e150ed6c4, 2023-07-21)"
   sodipodi:docname="wijayamotor_logo.svg"
   xmlns:inkscape="http://www.inkscape.org/namespaces/inkscape"
   xmlns:sodipodi="http://sodipodi.sourceforge.net/DTD/sodipodi-0.dtd"
   xmlns="http://www.w3.org/2000/svg"
   xmlns:svg="http://www.w3.org/2000/svg"><sodipodi:namedview
     id="namedview1"
     pagecolor="#ffffff"
     bordercolor="#000000"
     borderopacity="0.25"
     inkscape:showpageshadow="2"
     inkscape:pageopacity="0.0"
     inkscape:pagecheckerboard="0"
     inkscape:deskcolor="#d1d1d1"
     inkscape:document-units="px"
     inkscape:zoom="0.55242717"
     inkscape:cx="368.37435"
     inkscape:cy="70.597541"
     inkscape:window-width="1920"
     inkscape:window-height="1009"
     inkscape:window-x="-8"
     inkscape:window-y="-8"
     inkscape:window-maximized="1"
     inkscape:current-layer="layer1" /><defs
     id="defs1" /><g
     inkscape:label="Layer 1"
     inkscape:groupmode="layer"
     id="layer1"><path
       id="rect1"
       style="fill:#000000;stroke-width:0.720318"
       d="m 0,0 v 50.000013 99.999997 100.00002 c 1e-5,69.03561 55.96442,124.99999 125.00001,124.99999 69.03559,0 125,-55.96442 125,-124.99999 V 125.00001 c 0,-13.80712 11.19289,-25.00001 25.00001,-25 13.80712,0 25,11.19288 25,25 v 125.00002 c 10e-6,69.03561 55.9644,124.99999 125.00001,124.99999 69.03557,0 124.99999,-55.96442 124.99999,-124.99999 V 200 h -100 v 50.00003 c 0,13.80711 -11.19288,24.99999 -24.99999,24.99999 -13.80711,0 -24.99999,-11.19288 -24.99999,-24.99999 V 125.00001 C 400.00004,55.964413 344.03563,-4e-6 275.00002,7e-6 205.96442,3e-6 150.00001,55.964413 150.00001,125.00001 v 125.00002 c -1e-5,13.80711 -11.19289,24.99999 -25,24.99999 -13.80711,0 -24.99999,-11.19288 -25,-24.99999 V 150.00001 50.000013 0 Z"
       sodipodi:nodetypes="cccsssssssssccssssssssscccc" /><path
       id="path46"
       style="fill:#000000;stroke-width:0.720318"
       d="M 574.99999,0 C 505.96453,-9.9999986e-6 450,55.964531 450,125.00001 V 175 h 100 v -49.99999 c 0,-13.8071 11.19292,-25.000019 24.99999,-25 13.80707,0 25.00003,11.19291 25.00003,25 v 125 c 0,69.03547 55.96452,125 124.99998,125 69.03542,0 125.00002,-55.96455 125.00002,-125 v -125 c 0,-13.8071 11.19293,-25.000019 24.99999,-25 13.80707,0 24.99999,11.19291 24.99999,25 v 100 150 h 100 v -150 -100 C 1000,55.964541 944.03547,1.0000001e-5 875.00001,0 805.96452,-9.9999986e-6 750.00003,55.964531 750.00003,125.00001 v 125 c 0,13.80709 -11.19296,25 -25.00003,25.00001 -13.80707,-1e-5 -24.99999,-11.19292 -24.99999,-25.00001 v -125 C 700.00001,55.964531 644.03548,-9.9999986e-6 574.99999,0 Z"
       sodipodi:nodetypes="ssccsssssssssccccssssssss" /></g></svg>
