<?xml version="1.0" encoding="UTF-8" standalone="no"?>
<!-- Created with Inkscape (http://www.inkscape.org/) -->

<svg
   width="512pt"
   height="512pt"
   viewBox="0 0 180.62222 180.62222"
   version="1.1"
   id="svg1"
   inkscape:version="1.3 (0e150ed6c4, 2023-07-21)"
   sodipodi:docname="wijayamotor.svg"
   xmlns:inkscape="http://www.inkscape.org/namespaces/inkscape"
   xmlns:sodipodi="http://sodipodi.sourceforge.net/DTD/sodipodi-0.dtd"
   xmlns="http://www.w3.org/2000/svg"
   xmlns:svg="http://www.w3.org/2000/svg">
  <sodipodi:namedview
     id="namedview1"
     pagecolor="#ffffff"
     bordercolor="#000000"
     borderopacity="0.25"
     inkscape:showpageshadow="2"
     inkscape:pageopacity="0.0"
     inkscape:pagecheckerboard="0"
     inkscape:deskcolor="#d1d1d1"
     inkscape:document-units="pt"
     showguides="false"
     inkscape:zoom="0.97597275"
     inkscape:cx="335.05034"
     inkscape:cy="327.3657"
     inkscape:window-width="1920"
     inkscape:window-height="974"
     inkscape:window-x="-11"
     inkscape:window-y="-11"
     inkscape:window-maximized="1"
     inkscape:current-layer="layer1"
     inkscape:lockguides="false" />
  <defs
     id="defs1" />
  <g
     inkscape:label="Layer 1"
     inkscape:groupmode="layer"
     id="layer1">
    <path
       id="path1"
       style="stroke-width:0.90291"
       d="M 25.399999 50.799998 L 25.399999 62.088714 L 25.399999 67.73333 L 25.399999 98.777429 A 14.111152 14.111111 0 0 0 25.417052 99.469893 A 14.111152 14.111111 0 0 0 25.467695 100.16081 A 14.111152 14.111111 0 0 0 25.552444 100.8481 A 14.111152 14.111111 0 0 0 25.670783 101.53075 A 14.111152 14.111111 0 0 0 25.822712 102.20616 A 14.111152 14.111111 0 0 0 26.007197 102.87382 A 14.111152 14.111111 0 0 0 26.224755 103.53166 A 14.111152 14.111111 0 0 0 26.473835 104.17762 A 14.111152 14.111111 0 0 0 26.754438 104.81065 A 14.111152 14.111111 0 0 0 27.066047 105.42974 A 14.111152 14.111111 0 0 0 27.407628 106.03228 A 14.111152 14.111111 0 0 0 27.778148 106.61726 A 14.111152 14.111111 0 0 0 28.176574 107.18363 A 14.111152 14.111111 0 0 0 28.602904 107.72934 A 14.111152 14.111111 0 0 0 29.055073 108.25385 A 14.111152 14.111111 0 0 0 29.53308 108.75563 A 14.111152 14.111111 0 0 0 30.034341 109.23312 A 14.111152 14.111111 0 0 0 30.558857 109.68581 A 14.111152 14.111111 0 0 0 31.105077 110.11162 A 14.111152 14.111111 0 0 0 31.67145 110.51056 A 14.111152 14.111111 0 0 0 32.256428 110.88108 A 14.111152 14.111111 0 0 0 32.858975 111.22266 A 14.111152 14.111111 0 0 0 33.477542 111.53376 A 14.111152 14.111111 0 0 0 34.111095 111.81436 A 14.111152 14.111111 0 0 0 34.75705 112.06396 A 14.111152 14.111111 0 0 0 35.414891 112.281 A 14.111152 14.111111 0 0 0 36.082034 112.466 A 14.111152 14.111111 0 0 0 36.757962 112.61741 A 14.111152 14.111111 0 0 0 37.440607 112.73575 A 14.111152 14.111111 0 0 0 38.127904 112.82102 A 14.111152 14.111111 0 0 0 38.818301 112.87166 A 14.111152 14.111111 0 0 0 39.510765 112.88871 A 14.111152 14.111111 0 0 0 41.518911 112.74505 A 14.111152 14.111111 0 0 0 43.486749 112.31717 A 14.111152 14.111111 0 0 0 45.372939 111.61334 A 14.111152 14.111111 0 0 0 47.139756 110.64854 A 14.111152 14.111111 0 0 0 48.751544 109.44189 A 14.111152 14.111111 0 0 0 50.17523 108.01821 A 14.111152 14.111111 0 0 0 51.381874 106.40642 A 14.111152 14.111111 0 0 0 52.346673 104.6396 A 14.111152 14.111111 0 0 0 53.050506 102.75341 A 14.111152 14.111111 0 0 0 53.478387 100.78558 A 14.111152 14.111111 0 0 0 53.622048 98.777429 L 53.622048 81.844096 A 2.8222301 2.822222 0 0 1 56.444098 79.022047 A 2.8222301 2.822222 0 0 1 59.266664 81.844096 L 59.266664 98.777429 A 14.111152 14.111111 0 0 0 59.283717 99.469893 A 14.111152 14.111111 0 0 0 59.33436 100.16081 A 14.111152 14.111111 0 0 0 59.41911 100.8481 A 14.111152 14.111111 0 0 0 59.537449 101.53075 A 14.111152 14.111111 0 0 0 59.689377 102.20616 A 14.111152 14.111111 0 0 0 59.873862 102.87382 A 14.111152 14.111111 0 0 0 60.09142 103.53166 A 14.111152 14.111111 0 0 0 60.3405 104.17762 A 14.111152 14.111111 0 0 0 60.621103 104.81065 A 14.111152 14.111111 0 0 0 60.932712 105.42974 A 14.111152 14.111111 0 0 0 61.274293 106.03228 A 14.111152 14.111111 0 0 0 61.644813 106.61726 A 14.111152 14.111111 0 0 0 62.043239 107.18363 A 14.111152 14.111111 0 0 0 62.469569 107.72934 A 14.111152 14.111111 0 0 0 62.921738 108.25385 A 14.111152 14.111111 0 0 0 63.399745 108.75563 A 14.111152 14.111111 0 0 0 63.901006 109.23312 A 14.111152 14.111111 0 0 0 64.425522 109.68581 A 14.111152 14.111111 0 0 0 64.971742 110.11162 A 14.111152 14.111111 0 0 0 65.538116 110.51056 A 14.111152 14.111111 0 0 0 66.123093 110.88108 A 14.111152 14.111111 0 0 0 66.72564 111.22266 A 14.111152 14.111111 0 0 0 67.344207 111.53376 A 14.111152 14.111111 0 0 0 67.97776 111.81436 A 14.111152 14.111111 0 0 0 68.623715 112.06396 A 14.111152 14.111111 0 0 0 69.281556 112.281 A 14.111152 14.111111 0 0 0 69.948699 112.466 A 14.111152 14.111111 0 0 0 70.624627 112.61741 A 14.111152 14.111111 0 0 0 71.307272 112.73575 A 14.111152 14.111111 0 0 0 71.994569 112.82102 A 14.111152 14.111111 0 0 0 72.684966 112.87166 A 14.111152 14.111111 0 0 0 73.37743 112.88871 A 14.111152 14.111111 0 0 0 75.385576 112.74505 A 14.111152 14.111111 0 0 0 77.353415 112.31717 A 14.111152 14.111111 0 0 0 79.239604 111.61334 A 14.111152 14.111111 0 0 0 81.006422 110.64854 A 14.111152 14.111111 0 0 0 82.618209 109.44189 A 14.111152 14.111111 0 0 0 84.041895 108.01821 A 14.111152 14.111111 0 0 0 85.24854 106.40642 A 14.111152 14.111111 0 0 0 86.213339 104.6396 A 14.111152 14.111111 0 0 0 86.917172 102.75341 A 14.111152 14.111111 0 0 0 87.345052 100.78558 A 14.111152 14.111111 0 0 0 87.488713 98.777429 L 87.488713 67.73333 L 87.488713 62.088714 L 155.22204 62.088714 L 155.22204 50.799998 L 76.199997 50.799998 L 76.199997 62.088714 L 76.199997 67.73333 L 76.199997 98.777429 A 2.8222301 2.822222 0 0 1 73.37743 101.6 A 2.8222301 2.822222 0 0 1 70.55538 98.777429 L 70.55538 81.844096 A 14.111152 14.111111 0 0 0 70.41172 79.83595 A 14.111152 14.111111 0 0 0 69.983839 77.868629 A 14.111152 14.111111 0 0 0 69.280006 75.982439 A 14.111152 14.111111 0 0 0 68.315207 74.215105 A 14.111152 14.111111 0 0 0 67.108562 72.603317 A 14.111152 14.111111 0 0 0 65.684877 71.179632 A 14.111152 14.111111 0 0 0 64.073089 69.973504 A 14.111152 14.111111 0 0 0 62.306272 69.008188 A 14.111152 14.111111 0 0 0 60.420082 68.304872 A 14.111152 14.111111 0 0 0 58.452244 67.876991 A 14.111152 14.111111 0 0 0 56.444098 67.73333 A 14.111152 14.111111 0 0 0 54.435951 67.876991 A 14.111152 14.111111 0 0 0 52.46863 68.304872 A 14.111152 14.111111 0 0 0 50.58244 69.008188 A 14.111152 14.111111 0 0 0 48.815106 69.973504 A 14.111152 14.111111 0 0 0 47.203318 71.179632 A 14.111152 14.111111 0 0 0 45.779633 72.603317 A 14.111152 14.111111 0 0 0 44.573505 74.215105 A 14.111152 14.111111 0 0 0 43.608189 75.982439 A 14.111152 14.111111 0 0 0 42.904873 77.868629 A 14.111152 14.111111 0 0 0 42.476992 79.83595 A 14.111152 14.111111 0 0 0 42.333332 81.844096 L 42.333332 98.777429 A 2.8222301 2.822222 0 0 1 39.510765 101.6 A 2.8222301 2.822222 0 0 1 36.688715 98.777429 L 36.688715 67.73333 L 36.688715 62.088714 L 70.55538 62.088714 L 70.55538 50.799998 L 25.399999 50.799998 z M 107.24461 67.73333 A 14.111152 14.111111 0 0 0 105.23647 67.876991 A 14.111152 14.111111 0 0 0 103.26863 68.304872 A 14.111152 14.111111 0 0 0 101.38244 69.008705 A 14.111152 14.111111 0 0 0 99.615621 69.973504 A 14.111152 14.111111 0 0 0 98.003833 71.180148 A 14.111152 14.111111 0 0 0 96.580147 72.603834 A 14.111152 14.111111 0 0 0 95.373503 74.215622 A 14.111152 14.111111 0 0 0 94.408704 75.982439 A 14.111152 14.111111 0 0 0 93.704871 77.868629 A 14.111152 14.111111 0 0 0 93.27699 79.836467 A 14.111152 14.111111 0 0 0 93.133329 81.844613 L 93.133329 112.88871 L 93.133329 118.53333 L 25.399999 118.53333 L 25.399999 129.82204 L 104.42205 129.82204 L 104.42205 118.53333 L 104.42205 112.88871 L 104.42205 81.844613 A 2.8222302 2.822222 0 0 1 107.24461 79.022047 A 2.8222302 2.822222 0 0 1 110.06666 81.844613 L 110.06666 98.777946 A 14.111152 14.111111 0 0 0 110.21032 100.78609 A 14.111152 14.111111 0 0 0 110.6382 102.75341 A 14.111152 14.111111 0 0 0 111.34204 104.6396 A 14.111152 14.111111 0 0 0 112.30684 106.40694 A 14.111152 14.111111 0 0 0 113.51348 108.01873 A 14.111152 14.111111 0 0 0 114.93717 109.44241 A 14.111152 14.111111 0 0 0 116.54895 110.64854 A 14.111152 14.111111 0 0 0 118.31577 111.61385 A 14.111152 14.111111 0 0 0 120.20196 112.31717 A 14.111152 14.111111 0 0 0 122.1698 112.74505 A 14.111152 14.111111 0 0 0 124.17794 112.88871 A 14.111152 14.111111 0 0 0 126.18609 112.74505 A 14.111152 14.111111 0 0 0 128.15341 112.31717 A 14.111152 14.111111 0 0 0 130.0396 111.61385 A 14.111152 14.111111 0 0 0 131.80694 110.64854 A 14.111152 14.111111 0 0 0 133.41872 109.44241 A 14.111152 14.111111 0 0 0 134.84241 108.01873 A 14.111152 14.111111 0 0 0 136.04854 106.40694 A 14.111152 14.111111 0 0 0 137.01385 104.6396 A 14.111152 14.111111 0 0 0 137.71717 102.75341 A 14.111152 14.111111 0 0 0 138.14505 100.78609 A 14.111152 14.111111 0 0 0 138.28871 98.777946 L 138.28871 81.844613 A 2.8222302 2.822222 0 0 1 141.11128 79.022047 A 2.8222302 2.822222 0 0 1 143.93333 81.844613 L 143.93333 112.88871 L 143.93333 118.53333 L 110.06666 118.53333 L 110.06666 129.82204 L 155.22204 129.82204 L 155.22204 118.53333 L 155.22204 112.88871 L 155.22204 81.844613 A 14.111152 14.111111 0 0 0 155.20499 81.152149 A 14.111152 14.111111 0 0 0 155.15435 80.461235 A 14.111152 14.111111 0 0 0 155.0696 79.773939 A 14.111152 14.111111 0 0 0 154.95126 79.091293 A 14.111152 14.111111 0 0 0 154.79933 78.415882 A 14.111152 14.111111 0 0 0 154.61485 77.748223 A 14.111152 14.111111 0 0 0 154.39729 77.090382 A 14.111152 14.111111 0 0 0 154.14821 76.444426 A 14.111152 14.111111 0 0 0 153.8676 75.81139 A 14.111152 14.111111 0 0 0 153.556 75.192306 A 14.111152 14.111111 0 0 0 153.21441 74.589759 A 14.111152 14.111111 0 0 0 152.84389 74.004782 A 14.111152 14.111111 0 0 0 152.44547 73.438408 A 14.111152 14.111111 0 0 0 152.01914 72.892705 A 14.111152 14.111111 0 0 0 151.56697 72.368189 A 14.111152 14.111111 0 0 0 151.08896 71.866411 A 14.111152 14.111111 0 0 0 150.5877 71.388921 A 14.111152 14.111111 0 0 0 150.06319 70.936236 A 14.111152 14.111111 0 0 0 149.51697 70.510422 A 14.111152 14.111111 0 0 0 148.95059 70.11148 A 14.111152 14.111111 0 0 0 148.36561 69.74096 A 14.111152 14.111111 0 0 0 147.76307 69.399379 A 14.111152 14.111111 0 0 0 147.1445 69.088286 A 14.111152 14.111111 0 0 0 146.51095 68.807683 A 14.111152 14.111111 0 0 0 145.86499 68.558086 A 14.111152 14.111111 0 0 0 145.20715 68.341045 A 14.111152 14.111111 0 0 0 144.54001 68.156044 A 14.111152 14.111111 0 0 0 143.86408 68.004632 A 14.111152 14.111111 0 0 0 143.18144 67.886293 A 14.111152 14.111111 0 0 0 142.49414 67.801027 A 14.111152 14.111111 0 0 0 141.80374 67.750384 A 14.111152 14.111111 0 0 0 141.11128 67.73333 A 14.111152 14.111111 0 0 0 139.10313 67.876991 A 14.111152 14.111111 0 0 0 137.13529 68.304872 A 14.111152 14.111111 0 0 0 135.2491 69.008705 A 14.111152 14.111111 0 0 0 133.48229 69.973504 A 14.111152 14.111111 0 0 0 131.8705 71.180148 A 14.111152 14.111111 0 0 0 130.44681 72.603834 A 14.111152 14.111111 0 0 0 129.24017 74.215622 A 14.111152 14.111111 0 0 0 128.27537 75.982439 A 14.111152 14.111111 0 0 0 127.57154 77.868629 A 14.111152 14.111111 0 0 0 127.14366 79.836467 A 14.111152 14.111111 0 0 0 126.99999 81.844613 L 126.99999 98.777946 A 2.8222302 2.822222 0 0 1 124.17794 101.6 A 2.8222302 2.822222 0 0 1 121.35538 98.777946 L 121.35538 81.844613 A 14.111152 14.111111 0 0 0 121.33832 81.152149 A 14.111152 14.111111 0 0 0 121.28768 80.461235 A 14.111152 14.111111 0 0 0 121.20293 79.773939 A 14.111152 14.111111 0 0 0 121.08459 79.091293 A 14.111152 14.111111 0 0 0 120.93266 78.415882 A 14.111152 14.111111 0 0 0 120.74818 77.748223 A 14.111152 14.111111 0 0 0 120.53062 77.090382 A 14.111152 14.111111 0 0 0 120.28154 76.444426 A 14.111152 14.111111 0 0 0 120.00094 75.81139 A 14.111152 14.111111 0 0 0 119.68933 75.192306 A 14.111152 14.111111 0 0 0 119.34775 74.589759 A 14.111152 14.111111 0 0 0 118.97723 74.004782 A 14.111152 14.111111 0 0 0 118.5788 73.438408 A 14.111152 14.111111 0 0 0 118.15247 72.892705 A 14.111152 14.111111 0 0 0 117.7003 72.368189 A 14.111152 14.111111 0 0 0 117.2223 71.866411 A 14.111152 14.111111 0 0 0 116.72104 71.388921 A 14.111152 14.111111 0 0 0 116.19652 70.936236 A 14.111152 14.111111 0 0 0 115.6503 70.510422 A 14.111152 14.111111 0 0 0 115.08393 70.11148 A 14.111152 14.111111 0 0 0 114.49895 69.74096 A 14.111152 14.111111 0 0 0 113.8964 69.399379 A 14.111152 14.111111 0 0 0 113.27784 69.088286 A 14.111152 14.111111 0 0 0 112.64428 68.807683 A 14.111152 14.111111 0 0 0 111.99833 68.558086 A 14.111152 14.111111 0 0 0 111.34049 68.341045 A 14.111152 14.111111 0 0 0 110.67334 68.156044 A 14.111152 14.111111 0 0 0 109.99742 68.004632 A 14.111152 14.111111 0 0 0 109.31477 67.886293 A 14.111152 14.111111 0 0 0 108.62747 67.801027 A 14.111152 14.111111 0 0 0 107.93708 67.750384 A 14.111152 14.111111 0 0 0 107.24461 67.73333 z " />
  </g>
</svg>
